<?xml version="1.0" encoding="utf-8"?>
<!-- Generator: Adobe Illustrator 19.0.0, SVG Export Plug-In . SVG Version: 6.00 Build 0)  -->
<svg version="1.1" id="logo" xmlns="http://www.w3.org/2000/svg" xmlns:xlink="http://www.w3.org/1999/xlink" x="0px" y="0px"
	 viewBox="0 0 356.8 89" style="enable-background:new 0 0 356.8 89;" xml:space="preserve">
<style type="text/css">
	.st0{fill:#1890ff;}
	.st1{fill:#40a9ff;}
	.st2{fill:#FFFFFF;}
	.st3{fill:#2589db;}
	.st4{fill:#2589db;}
</style>
<g id="circle">
	<circle id="XMLID_5_" class="st0" cx="44.4" cy="44.2" r="38.9"/>
	<circle id="XMLID_4_" class="st1" cx="44" cy="43.8" r="38.9"/>
</g>
<g id="e">
	<g id="XMLID_156_">
		<path id="XMLID_157_" class="st2" d="M39.7,70.2l9.7-11.1L60,68.3L39.2,92.1L-3,55.2l20.8-23.8l10.6,9.3l-9.7,11.1l5.2,4.6
			l6.8-7.8l10.6,9.3l-6.8,7.8L39.7,70.2z"/>
	</g>
</g>
<g id="everyworkflow">
	<g id="XMLID_49_">
		<path id="XMLID_75_" class="st3" d="M108,56.6c0,0.2,0,0.5,0,0.7c0,0.2-0.1,0.3-0.1,0.5c-0.1,0.1-0.1,0.2-0.2,0.3
			c-0.1,0.1-0.2,0.1-0.3,0.1H94.4c-0.3,0-0.6-0.1-0.9-0.3c-0.3-0.2-0.4-0.6-0.4-1.1V32.7c0-0.5,0.1-0.9,0.4-1.1
			c0.3-0.2,0.6-0.3,0.9-0.3h12.7c0.1,0,0.2,0,0.3,0.1c0.1,0.1,0.2,0.1,0.2,0.3c0.1,0.1,0.1,0.3,0.1,0.5c0,0.2,0.1,0.4,0.1,0.7
			c0,0.2,0,0.5-0.1,0.7c0,0.2-0.1,0.3-0.1,0.5c-0.1,0.1-0.1,0.2-0.2,0.3c-0.1,0.1-0.2,0.1-0.3,0.1H96.6v8.4h9c0.1,0,0.2,0,0.3,0.1
			c0.1,0.1,0.2,0.1,0.2,0.3c0.1,0.1,0.1,0.3,0.1,0.5c0,0.2,0,0.4,0,0.7c0,0.2,0,0.5,0,0.6c0,0.2-0.1,0.3-0.1,0.4
			c-0.1,0.1-0.1,0.2-0.2,0.2c-0.1,0-0.2,0.1-0.3,0.1h-9v9.6h10.6c0.1,0,0.2,0,0.3,0.1c0.1,0.1,0.2,0.1,0.2,0.3
			c0.1,0.1,0.1,0.3,0.1,0.5C108,56.1,108,56.3,108,56.6z"/>
		<path id="XMLID_73_" class="st3" d="M127.7,38.9c0,0.1,0,0.1,0,0.2c0,0.1,0,0.1,0,0.2c0,0.1,0,0.1-0.1,0.2c0,0.1,0,0.2-0.1,0.3
			l-6.4,17.7c-0.1,0.2-0.1,0.3-0.2,0.4c-0.1,0.1-0.2,0.2-0.4,0.2c-0.2,0.1-0.4,0.1-0.7,0.1c-0.3,0-0.6,0-1,0s-0.8,0-1,0
			c-0.3,0-0.5-0.1-0.7-0.1c-0.2-0.1-0.3-0.1-0.4-0.2c-0.1-0.1-0.2-0.2-0.2-0.4l-6.3-17.7c-0.1-0.2-0.1-0.3-0.1-0.4
			c0-0.1-0.1-0.2-0.1-0.3c0-0.1,0-0.1,0-0.2c0-0.1,0-0.2,0.1-0.3c0.1-0.1,0.1-0.1,0.3-0.2c0.1,0,0.3-0.1,0.5-0.1c0.2,0,0.5,0,0.8,0
			c0.4,0,0.7,0,1,0c0.2,0,0.4,0.1,0.6,0.1c0.1,0.1,0.2,0.1,0.3,0.2c0.1,0.1,0.1,0.2,0.2,0.3l5.3,15.4l0.1,0.2l0.1-0.2l5.2-15.4
			c0-0.1,0.1-0.2,0.1-0.3c0.1-0.1,0.2-0.2,0.3-0.2c0.1-0.1,0.3-0.1,0.5-0.1c0.2,0,0.5,0,0.9,0c0.3,0,0.6,0,0.8,0
			c0.2,0,0.4,0,0.5,0.1c0.1,0.1,0.2,0.1,0.2,0.2C127.7,38.7,127.7,38.8,127.7,38.9z"/>
		<path id="XMLID_70_" class="st3" d="M147.1,47.4c0,0.5-0.1,0.9-0.4,1.1c-0.3,0.2-0.6,0.3-0.9,0.3h-12.3c0,1,0.1,2,0.3,2.8
			c0.2,0.8,0.6,1.5,1,2.1c0.5,0.6,1.1,1,1.9,1.4c0.8,0.3,1.7,0.5,2.9,0.5c0.9,0,1.7-0.1,2.4-0.2s1.3-0.3,1.8-0.5
			c0.5-0.2,0.9-0.3,1.2-0.5c0.3-0.1,0.6-0.2,0.7-0.2c0.1,0,0.2,0,0.3,0.1c0.1,0,0.1,0.1,0.2,0.2c0,0.1,0.1,0.2,0.1,0.4
			c0,0.2,0,0.4,0,0.6c0,0.2,0,0.3,0,0.5c0,0.1,0,0.2-0.1,0.4c0,0.1-0.1,0.2-0.1,0.3c0,0.1-0.1,0.2-0.2,0.2c-0.1,0.1-0.3,0.2-0.7,0.4
			c-0.4,0.2-0.9,0.3-1.4,0.5s-1.3,0.3-2.1,0.4c-0.8,0.1-1.6,0.2-2.5,0.2c-1.5,0-2.9-0.2-4-0.6c-1.2-0.4-2.1-1.1-2.9-1.9
			c-0.8-0.8-1.4-1.9-1.8-3.2c-0.4-1.3-0.6-2.7-0.6-4.4c0-1.6,0.2-3,0.6-4.3c0.4-1.3,1-2.4,1.8-3.3c0.8-0.9,1.7-1.6,2.8-2.1
			c1.1-0.5,2.3-0.7,3.7-0.7c1.5,0,2.7,0.2,3.7,0.7c1,0.5,1.9,1.1,2.5,1.9c0.7,0.8,1.1,1.7,1.5,2.8c0.3,1.1,0.5,2.2,0.5,3.4V47.4z
			 M143.6,46.4c0-1.8-0.4-3.2-1.2-4.2c-0.8-1-2.1-1.5-3.7-1.5c-0.8,0-1.6,0.2-2.2,0.5c-0.6,0.3-1.2,0.7-1.6,1.3
			c-0.4,0.5-0.8,1.1-1,1.8c-0.2,0.7-0.4,1.4-0.4,2.2H143.6z"/>
		<path id="XMLID_68_" class="st3" d="M163.2,40.1c0,0.3,0,0.6,0,0.8s0,0.4-0.1,0.5c0,0.1-0.1,0.2-0.2,0.3c-0.1,0.1-0.1,0.1-0.3,0.1
			s-0.2,0-0.4-0.1c-0.2-0.1-0.3-0.1-0.5-0.2c-0.2-0.1-0.4-0.1-0.7-0.2c-0.2-0.1-0.5-0.1-0.8-0.1c-0.3,0-0.7,0.1-1,0.2
			c-0.3,0.1-0.7,0.4-1,0.7c-0.4,0.3-0.7,0.7-1.1,1.3c-0.4,0.5-0.8,1.2-1.3,1.9v12.3c0,0.1,0,0.2-0.1,0.3c-0.1,0.1-0.1,0.1-0.3,0.2
			c-0.1,0.1-0.3,0.1-0.5,0.1c-0.2,0-0.5,0-0.8,0c-0.3,0-0.6,0-0.8,0c-0.2,0-0.4-0.1-0.5-0.1c-0.1-0.1-0.2-0.1-0.3-0.2
			c0-0.1-0.1-0.2-0.1-0.3V38.9c0-0.1,0-0.2,0.1-0.3c0-0.1,0.1-0.1,0.2-0.2c0.1-0.1,0.3-0.1,0.5-0.1c0.2,0,0.4,0,0.8,0
			c0.3,0,0.6,0,0.8,0c0.2,0,0.4,0.1,0.5,0.1c0.1,0.1,0.2,0.1,0.2,0.2c0,0.1,0.1,0.2,0.1,0.3v2.7c0.5-0.7,1-1.4,1.4-1.8
			c0.4-0.5,0.9-0.8,1.3-1.1c0.4-0.3,0.8-0.5,1.2-0.6c0.4-0.1,0.8-0.2,1.2-0.2c0.2,0,0.4,0,0.6,0s0.5,0.1,0.7,0.1
			c0.2,0.1,0.5,0.1,0.7,0.2c0.2,0.1,0.3,0.1,0.4,0.2c0.1,0.1,0.1,0.1,0.2,0.2s0.1,0.1,0.1,0.2c0,0.1,0,0.2,0,0.4
			C163.1,39.6,163.2,39.8,163.2,40.1z"/>
		<path id="XMLID_66_" class="st3" d="M175.7,58.1l-2.5,6.9c-0.1,0.2-0.3,0.4-0.6,0.5c-0.3,0.1-0.9,0.2-1.5,0.2
			c-0.4,0-0.6,0-0.9-0.1c-0.2,0-0.4-0.1-0.5-0.2c-0.1-0.1-0.2-0.2-0.2-0.3c0-0.1,0-0.3,0.1-0.5l2.6-6.5c-0.1-0.1-0.2-0.1-0.4-0.3
			c-0.1-0.1-0.2-0.3-0.2-0.4L165,39.6c-0.1-0.3-0.2-0.5-0.2-0.7s0.1-0.3,0.2-0.4c0.1-0.1,0.3-0.2,0.5-0.2c0.2,0,0.6-0.1,1-0.1
			c0.4,0,0.7,0,1,0c0.2,0,0.4,0.1,0.6,0.1c0.1,0.1,0.2,0.1,0.3,0.2c0.1,0.1,0.1,0.2,0.2,0.4l5.3,15h0.1l5.1-15
			c0.1-0.3,0.2-0.4,0.3-0.5c0.1-0.1,0.3-0.1,0.5-0.2c0.2,0,0.6-0.1,1-0.1c0.4,0,0.7,0,1,0.1c0.2,0,0.4,0.1,0.5,0.2
			c0.1,0.1,0.2,0.2,0.2,0.4s0,0.4-0.1,0.6L175.7,58.1z"/>
		<path id="XMLID_64_" class="st3" d="M212.5,57.3c-0.1,0.2-0.1,0.3-0.2,0.5c-0.1,0.1-0.3,0.2-0.5,0.3c-0.2,0.1-0.4,0.1-0.7,0.1
			c-0.3,0-0.6,0-1,0c-0.4,0-0.8,0-1.1,0c-0.3,0-0.5-0.1-0.7-0.1c-0.2-0.1-0.3-0.2-0.4-0.3c-0.1-0.1-0.2-0.3-0.2-0.5L201.9,37h0
			l-5.2,20.2c0,0.2-0.1,0.3-0.2,0.5c-0.1,0.1-0.2,0.2-0.4,0.3c-0.2,0.1-0.4,0.1-0.7,0.1c-0.3,0-0.6,0-1.1,0c-0.5,0-0.8,0-1.1,0
			c-0.3,0-0.6-0.1-0.7-0.1c-0.2-0.1-0.3-0.2-0.4-0.3c-0.1-0.1-0.2-0.3-0.2-0.5l-7.1-24.8c-0.1-0.3-0.1-0.6-0.1-0.7
			c0-0.2,0-0.3,0.2-0.4c0.1-0.1,0.3-0.2,0.6-0.2c0.3,0,0.6,0,1.1,0c0.4,0,0.8,0,1,0c0.2,0,0.4,0.1,0.6,0.1c0.1,0.1,0.2,0.1,0.3,0.2
			c0,0.1,0.1,0.2,0.1,0.4l6,22.5h0l5.7-22.4c0-0.2,0.1-0.3,0.2-0.4c0.1-0.1,0.2-0.2,0.3-0.2c0.1-0.1,0.3-0.1,0.6-0.1
			c0.3,0,0.6,0,1,0c0.4,0,0.7,0,0.9,0c0.2,0,0.4,0.1,0.5,0.1c0.1,0.1,0.2,0.1,0.3,0.2c0.1,0.1,0.1,0.2,0.2,0.4l6.2,22.4h0l5.9-22.4
			c0-0.1,0.1-0.3,0.1-0.4c0-0.1,0.1-0.2,0.3-0.2c0.1-0.1,0.3-0.1,0.6-0.1c0.2,0,0.6,0,1,0c0.4,0,0.7,0,1,0.1c0.2,0,0.4,0.1,0.5,0.2
			c0.1,0.1,0.2,0.2,0.2,0.4c0,0.2,0,0.4-0.1,0.7L212.5,57.3z"/>
		<path id="XMLID_61_" class="st3" d="M239.7,48c0,1.5-0.2,2.9-0.6,4.2c-0.4,1.3-1,2.4-1.8,3.3c-0.8,0.9-1.8,1.6-3,2.2
			s-2.6,0.8-4.2,0.8c-1.5,0-2.9-0.2-4-0.7c-1.1-0.5-2.1-1.1-2.8-2s-1.3-1.9-1.7-3.2c-0.4-1.2-0.6-2.7-0.6-4.2c0-1.5,0.2-2.9,0.6-4.2
			c0.4-1.3,1-2.4,1.8-3.3c0.8-0.9,1.8-1.6,3-2.2c1.2-0.5,2.6-0.8,4.2-0.8c1.5,0,2.9,0.2,4,0.7c1.1,0.5,2.1,1.1,2.8,2
			c0.8,0.9,1.3,1.9,1.7,3.2C239.6,45.1,239.7,46.5,239.7,48z M236.2,48.3c0-1-0.1-2-0.3-2.9c-0.2-0.9-0.5-1.7-0.9-2.4
			c-0.4-0.7-1-1.2-1.8-1.6c-0.7-0.4-1.7-0.6-2.8-0.6c-1,0-1.9,0.2-2.6,0.5c-0.7,0.4-1.3,0.9-1.8,1.5c-0.5,0.7-0.8,1.4-1.1,2.3
			c-0.2,0.9-0.3,1.9-0.3,2.9c0,1,0.1,2,0.3,2.9c0.2,0.9,0.5,1.7,0.9,2.4c0.4,0.7,1,1.2,1.8,1.6c0.7,0.4,1.7,0.6,2.8,0.6
			c1,0,1.9-0.2,2.6-0.5c0.7-0.4,1.3-0.9,1.8-1.5c0.5-0.6,0.8-1.4,1-2.3C236.1,50.3,236.2,49.3,236.2,48.3z"/>
		<path id="XMLID_59_" class="st3" d="M255.7,40.1c0,0.3,0,0.6,0,0.8s0,0.4-0.1,0.5c0,0.1-0.1,0.2-0.2,0.3c-0.1,0.1-0.1,0.1-0.3,0.1
			s-0.2,0-0.4-0.1c-0.2-0.1-0.3-0.1-0.5-0.2c-0.2-0.1-0.4-0.1-0.7-0.2c-0.2-0.1-0.5-0.1-0.8-0.1c-0.3,0-0.7,0.1-1,0.2
			c-0.3,0.1-0.7,0.4-1,0.7c-0.4,0.3-0.7,0.7-1.2,1.3c-0.4,0.5-0.8,1.2-1.3,1.9v12.3c0,0.1,0,0.2-0.1,0.3c-0.1,0.1-0.1,0.1-0.3,0.2
			c-0.1,0.1-0.3,0.1-0.5,0.1c-0.2,0-0.5,0-0.8,0c-0.3,0-0.6,0-0.8,0c-0.2,0-0.4-0.1-0.5-0.1c-0.1-0.1-0.2-0.1-0.3-0.2
			c0-0.1-0.1-0.2-0.1-0.3V38.9c0-0.1,0-0.2,0.1-0.3c0-0.1,0.1-0.1,0.2-0.2c0.1-0.1,0.3-0.1,0.5-0.1c0.2,0,0.4,0,0.8,0
			c0.3,0,0.6,0,0.8,0c0.2,0,0.4,0.1,0.5,0.1c0.1,0.1,0.2,0.1,0.2,0.2c0,0.1,0.1,0.2,0.1,0.3v2.7c0.5-0.7,1-1.4,1.4-1.8
			c0.4-0.5,0.9-0.8,1.3-1.1c0.4-0.3,0.8-0.5,1.2-0.6c0.4-0.1,0.8-0.2,1.2-0.2c0.2,0,0.4,0,0.6,0s0.5,0.1,0.7,0.1
			c0.2,0.1,0.5,0.1,0.7,0.2c0.2,0.1,0.3,0.1,0.4,0.2c0.1,0.1,0.1,0.1,0.2,0.2s0.1,0.1,0.1,0.2c0,0.1,0,0.2,0,0.4
			C255.7,39.6,255.7,39.8,255.7,40.1z"/>
		<path id="XMLID_57_" class="st3" d="M274.9,57.5c0,0.1,0,0.2-0.1,0.3c-0.1,0.1-0.1,0.2-0.3,0.2c-0.1,0.1-0.3,0.1-0.5,0.1
			c-0.2,0-0.5,0-0.9,0c-0.4,0-0.7,0-0.9,0c-0.2,0-0.4-0.1-0.6-0.1c-0.2,0-0.3-0.1-0.4-0.2c-0.1-0.1-0.2-0.2-0.3-0.3L263,47.2v10.3
			c0,0.1,0,0.2-0.1,0.3c-0.1,0.1-0.1,0.1-0.3,0.2c-0.1,0.1-0.3,0.1-0.5,0.1c-0.2,0-0.5,0-0.8,0c-0.3,0-0.6,0-0.8,0
			c-0.2,0-0.4-0.1-0.5-0.1c-0.1-0.1-0.2-0.1-0.3-0.2c0-0.1-0.1-0.2-0.1-0.3V29.9c0-0.1,0-0.2,0.1-0.3c0-0.1,0.1-0.2,0.3-0.2
			c0.1-0.1,0.3-0.1,0.5-0.1c0.2,0,0.5,0,0.8,0c0.3,0,0.6,0,0.8,0c0.2,0,0.4,0.1,0.5,0.1c0.1,0.1,0.2,0.1,0.3,0.2s0.1,0.2,0.1,0.3
			v16.9l7-7.7c0.1-0.1,0.2-0.3,0.4-0.3c0.1-0.1,0.3-0.2,0.4-0.2c0.2-0.1,0.4-0.1,0.6-0.1c0.2,0,0.5,0,0.8,0c0.3,0,0.6,0,0.9,0
			c0.2,0,0.4,0.1,0.6,0.1c0.1,0,0.2,0.1,0.3,0.2c0.1,0.1,0.1,0.2,0.1,0.3c0,0.2,0,0.3-0.1,0.5s-0.2,0.4-0.4,0.6l-6.8,6.8l7.6,9.8
			c0.2,0.2,0.3,0.4,0.4,0.6C274.8,57.3,274.9,57.4,274.9,57.5z"/>
		<path id="XMLID_55_" class="st3" d="M295,57.6c0,0.1,0,0.2-0.1,0.3c-0.1,0.1-0.1,0.1-0.3,0.2s-0.3,0.1-0.5,0.1c-0.2,0-0.5,0-0.8,0
			s-0.6,0-0.8,0c-0.2,0-0.4-0.1-0.5-0.1c-0.1-0.1-0.2-0.1-0.3-0.2c-0.1-0.1-0.1-0.2-0.1-0.3V32.3c0,0-0.1,0.1-0.1,0.1s-0.1,0-0.2,0
			c-0.2,0-0.4,0-0.7-0.1c-0.3-0.1-0.7-0.1-1-0.2c-0.4-0.1-0.7-0.1-1-0.1c-0.3,0-0.6,0-1,0c-0.9,0-1.6,0.1-2.1,0.3
			c-0.6,0.2-1,0.4-1.3,0.8c-0.3,0.4-0.5,0.8-0.7,1.4c-0.1,0.6-0.2,1.2-0.2,2v2h3.8c0.1,0,0.2,0,0.3,0.1c0.1,0,0.2,0.1,0.2,0.2
			c0.1,0.1,0.1,0.3,0.1,0.4c0,0.2,0,0.4,0,0.7c0,0.5-0.1,0.9-0.2,1.1c-0.1,0.2-0.3,0.3-0.5,0.3h-3.8v16.3c0,0.1,0,0.2-0.1,0.3
			c-0.1,0.1-0.1,0.1-0.3,0.2c-0.1,0.1-0.3,0.1-0.5,0.1c-0.2,0-0.5,0-0.8,0c-0.3,0-0.6,0-0.8,0c-0.2,0-0.4-0.1-0.5-0.1
			c-0.1-0.1-0.2-0.1-0.3-0.2c-0.1-0.1-0.1-0.2-0.1-0.3V41.2h-2.6c-0.2,0-0.4-0.1-0.5-0.3c-0.1-0.2-0.2-0.6-0.2-1.1
			c0-0.3,0-0.5,0-0.7c0-0.2,0.1-0.3,0.1-0.4c0.1-0.1,0.1-0.2,0.2-0.2c0.1,0,0.2-0.1,0.3-0.1h2.6v-2c0-1.3,0.1-2.4,0.4-3.3
			c0.3-0.9,0.7-1.7,1.3-2.3c0.6-0.6,1.4-1,2.3-1.3c0.9-0.3,2-0.4,3.3-0.4c0.4,0,0.7,0,1.1,0c0.4,0,0.8,0.1,1.1,0.1
			c0.4,0,0.7,0.1,1,0.1c0.3,0,0.5,0.1,0.6,0.1c0.2,0,0.3,0.1,0.4,0.2c0.1,0.1,0.2,0.2,0.2,0.3c0-0.1,0-0.2,0.1-0.3s0.1-0.2,0.2-0.2
			c0.1-0.1,0.3-0.1,0.5-0.1c0.2,0,0.5,0,0.9,0c0.3,0,0.6,0,0.8,0c0.2,0,0.4,0.1,0.5,0.1c0.1,0.1,0.2,0.1,0.3,0.2s0.1,0.2,0.1,0.3
			V57.6z"/>
		<path id="XMLID_52_" class="st3" d="M318.6,48c0,1.5-0.2,2.9-0.6,4.2c-0.4,1.3-1,2.4-1.8,3.3c-0.8,0.9-1.8,1.6-3,2.2
			s-2.6,0.8-4.2,0.8c-1.5,0-2.9-0.2-4-0.7c-1.1-0.5-2.1-1.1-2.8-2s-1.3-1.9-1.7-3.2S300,50,300,48.4c0-1.5,0.2-2.9,0.6-4.2
			c0.4-1.3,1-2.4,1.8-3.3c0.8-0.9,1.8-1.6,3-2.2c1.2-0.5,2.6-0.8,4.2-0.8c1.5,0,2.9,0.2,4,0.7c1.1,0.5,2.1,1.1,2.8,2
			c0.8,0.9,1.3,1.9,1.7,3.2C318.5,45.1,318.6,46.5,318.6,48z M315.1,48.3c0-1-0.1-2-0.3-2.9c-0.2-0.9-0.5-1.7-0.9-2.4
			c-0.4-0.7-1-1.2-1.8-1.6c-0.7-0.4-1.7-0.6-2.8-0.6c-1,0-1.9,0.2-2.6,0.5c-0.7,0.4-1.3,0.9-1.8,1.5c-0.5,0.7-0.8,1.4-1.1,2.3
			c-0.2,0.9-0.3,1.9-0.3,2.9c0,1,0.1,2,0.3,2.9c0.2,0.9,0.5,1.7,0.9,2.4c0.4,0.7,1,1.2,1.8,1.6c0.7,0.4,1.7,0.6,2.8,0.6
			c1,0,1.9-0.2,2.6-0.5c0.7-0.4,1.3-0.9,1.8-1.5c0.5-0.6,0.8-1.4,1-2.3C315,50.3,315.1,49.3,315.1,48.3z"/>
		<path id="XMLID_50_" class="st3" d="M349.6,38.9c0,0.1,0,0.2,0,0.4c0,0.1-0.1,0.3-0.1,0.5l-5.5,17.7c0,0.2-0.1,0.3-0.2,0.4
			c-0.1,0.1-0.2,0.2-0.4,0.2c-0.2,0.1-0.4,0.1-0.7,0.1s-0.6,0-1,0c-0.4,0-0.8,0-1.1,0c-0.3,0-0.5-0.1-0.7-0.1s-0.3-0.1-0.4-0.2
			c-0.1-0.1-0.1-0.2-0.2-0.4l-3.9-13.5l0-0.2l0,0.2l-3.6,13.5c0,0.2-0.1,0.3-0.2,0.4c-0.1,0.1-0.2,0.2-0.4,0.2
			c-0.2,0.1-0.4,0.1-0.7,0.1c-0.3,0-0.6,0-1,0c-0.4,0-0.8,0-1,0c-0.3,0-0.5-0.1-0.7-0.1s-0.3-0.1-0.4-0.2c-0.1-0.1-0.1-0.2-0.2-0.4
			l-5.4-17.7c-0.1-0.2-0.1-0.4-0.1-0.5c0-0.1,0-0.3,0-0.4c0-0.1,0-0.2,0.1-0.3c0.1-0.1,0.1-0.1,0.3-0.2c0.1,0,0.3-0.1,0.5-0.1
			c0.2,0,0.5,0,0.8,0c0.4,0,0.7,0,0.9,0c0.2,0,0.4,0.1,0.5,0.1c0.1,0,0.2,0.1,0.3,0.2c0.1,0.1,0.1,0.2,0.1,0.3l4.5,15.4l0,0.2l0-0.2
			l4.1-15.4c0-0.1,0.1-0.2,0.1-0.3c0.1-0.1,0.2-0.2,0.3-0.2c0.1,0,0.3-0.1,0.5-0.1c0.2,0,0.5,0,0.8,0c0.3,0,0.6,0,0.8,0
			c0.2,0,0.4,0.1,0.5,0.1c0.1,0,0.2,0.1,0.3,0.2c0.1,0.1,0.1,0.2,0.1,0.3l4.5,15.4l0,0.2l0-0.2l4.4-15.4c0-0.1,0.1-0.2,0.1-0.3
			c0.1-0.1,0.2-0.2,0.3-0.2c0.1,0,0.3-0.1,0.5-0.1c0.2,0,0.5,0,0.9,0c0.3,0,0.6,0,0.8,0c0.2,0,0.4,0,0.5,0.1
			c0.1,0.1,0.2,0.1,0.2,0.2C349.6,38.6,349.6,38.7,349.6,38.9z"/>
	</g>
	<g id="XMLID_21_">
		<path id="XMLID_47_" class="st4" d="M107.5,56.9c0,0.2,0,0.5,0,0.7c0,0.2-0.1,0.3-0.1,0.5c-0.1,0.1-0.1,0.2-0.2,0.3
			c-0.1,0.1-0.2,0.1-0.3,0.1H93.9c-0.3,0-0.6-0.1-0.9-0.3c-0.3-0.2-0.4-0.6-0.4-1.1V33.1c0-0.5,0.1-0.9,0.4-1.1
			c0.3-0.2,0.6-0.3,0.9-0.3h12.7c0.1,0,0.2,0,0.3,0.1c0.1,0.1,0.2,0.1,0.2,0.3c0.1,0.1,0.1,0.3,0.1,0.5c0,0.2,0.1,0.4,0.1,0.7
			c0,0.2,0,0.5-0.1,0.7c0,0.2-0.1,0.3-0.1,0.5c-0.1,0.1-0.1,0.2-0.2,0.3c-0.1,0.1-0.2,0.1-0.3,0.1H96.2V43h9c0.1,0,0.2,0,0.3,0.1
			c0.1,0.1,0.2,0.1,0.2,0.3c0.1,0.1,0.1,0.3,0.1,0.5c0,0.2,0,0.4,0,0.7c0,0.2,0,0.5,0,0.6c0,0.2-0.1,0.3-0.1,0.4
			c-0.1,0.1-0.1,0.2-0.2,0.2c-0.1,0-0.2,0.1-0.3,0.1h-9v9.6h10.6c0.1,0,0.2,0,0.3,0.1c0.1,0.1,0.2,0.1,0.2,0.3
			c0.1,0.1,0.1,0.3,0.1,0.5C107.5,56.4,107.5,56.7,107.5,56.9z"/>
		<path id="XMLID_45_" class="st4" d="M127.2,39.2c0,0.1,0,0.1,0,0.2c0,0.1,0,0.1,0,0.2c0,0.1,0,0.1-0.1,0.2c0,0.1,0,0.2-0.1,0.3
			l-6.4,17.7c-0.1,0.2-0.1,0.3-0.2,0.4c-0.1,0.1-0.2,0.2-0.4,0.2c-0.2,0.1-0.4,0.1-0.7,0.1c-0.3,0-0.6,0-1,0s-0.8,0-1,0
			c-0.3,0-0.5-0.1-0.7-0.1c-0.2-0.1-0.3-0.1-0.4-0.2c-0.1-0.1-0.2-0.2-0.2-0.4l-6.3-17.7c-0.1-0.2-0.1-0.3-0.1-0.4
			c0-0.1-0.1-0.2-0.1-0.3c0-0.1,0-0.1,0-0.2c0-0.1,0-0.2,0.1-0.3c0.1-0.1,0.1-0.1,0.3-0.2c0.1,0,0.3-0.1,0.5-0.1c0.2,0,0.5,0,0.8,0
			c0.4,0,0.7,0,1,0c0.2,0,0.4,0.1,0.6,0.1c0.1,0.1,0.2,0.1,0.3,0.2c0.1,0.1,0.1,0.2,0.2,0.3l5.3,15.4l0.1,0.2l0.1-0.2l5.2-15.4
			c0-0.1,0.1-0.2,0.1-0.3c0.1-0.1,0.2-0.2,0.3-0.2c0.1-0.1,0.3-0.1,0.5-0.1c0.2,0,0.5,0,0.9,0c0.3,0,0.6,0,0.8,0
			c0.2,0,0.4,0,0.5,0.1c0.1,0.1,0.2,0.1,0.2,0.2C127.2,39,127.2,39.1,127.2,39.2z"/>
		<path id="XMLID_42_" class="st4" d="M146.6,47.8c0,0.5-0.1,0.9-0.4,1.1c-0.3,0.2-0.6,0.3-0.9,0.3H133c0,1,0.1,2,0.3,2.8
			c0.2,0.8,0.6,1.5,1,2.1c0.5,0.6,1.1,1,1.9,1.4c0.8,0.3,1.7,0.5,2.9,0.5c0.9,0,1.7-0.1,2.4-0.2c0.7-0.1,1.3-0.3,1.8-0.5
			c0.5-0.2,0.9-0.3,1.2-0.5c0.3-0.1,0.6-0.2,0.7-0.2c0.1,0,0.2,0,0.3,0.1c0.1,0,0.1,0.1,0.2,0.2c0,0.1,0.1,0.2,0.1,0.4
			c0,0.2,0,0.4,0,0.6c0,0.2,0,0.3,0,0.5c0,0.1,0,0.2-0.1,0.4s-0.1,0.2-0.1,0.3c0,0.1-0.1,0.2-0.2,0.2c-0.1,0.1-0.3,0.2-0.7,0.4
			c-0.4,0.2-0.9,0.3-1.4,0.5s-1.3,0.3-2.1,0.4c-0.8,0.1-1.6,0.2-2.5,0.2c-1.5,0-2.9-0.2-4-0.6c-1.2-0.4-2.1-1.1-2.9-1.9
			c-0.8-0.8-1.4-1.9-1.8-3.2c-0.4-1.3-0.6-2.7-0.6-4.4c0-1.6,0.2-3,0.6-4.3c0.4-1.3,1-2.4,1.8-3.3c0.8-0.9,1.7-1.6,2.8-2.1
			c1.1-0.5,2.3-0.7,3.7-0.7c1.5,0,2.7,0.2,3.7,0.7c1,0.5,1.9,1.1,2.5,1.9c0.7,0.8,1.1,1.7,1.5,2.8c0.3,1.1,0.5,2.2,0.5,3.4V47.8z
			 M143.1,46.7c0-1.8-0.4-3.2-1.2-4.2c-0.8-1-2.1-1.5-3.7-1.5c-0.8,0-1.6,0.2-2.2,0.5c-0.6,0.3-1.2,0.7-1.6,1.3
			c-0.4,0.5-0.8,1.1-1,1.8c-0.2,0.7-0.4,1.4-0.4,2.2H143.1z"/>
		<path id="XMLID_40_" class="st4" d="M162.7,40.5c0,0.3,0,0.6,0,0.8c0,0.2,0,0.4-0.1,0.5c0,0.1-0.1,0.2-0.2,0.3s-0.1,0.1-0.3,0.1
			s-0.2,0-0.4-0.1s-0.3-0.1-0.5-0.2s-0.4-0.1-0.7-0.2c-0.2-0.1-0.5-0.1-0.8-0.1c-0.3,0-0.7,0.1-1,0.2c-0.3,0.1-0.7,0.4-1,0.7
			c-0.4,0.3-0.7,0.7-1.1,1.3c-0.4,0.5-0.8,1.2-1.3,1.9v12.3c0,0.1,0,0.2-0.1,0.3c-0.1,0.1-0.1,0.1-0.3,0.2s-0.3,0.1-0.5,0.1
			c-0.2,0-0.5,0-0.8,0c-0.3,0-0.6,0-0.8,0c-0.2,0-0.4-0.1-0.5-0.1s-0.2-0.1-0.3-0.2c0-0.1-0.1-0.2-0.1-0.3V39.3c0-0.1,0-0.2,0.1-0.3
			c0-0.1,0.1-0.1,0.2-0.2c0.1-0.1,0.3-0.1,0.5-0.1c0.2,0,0.4,0,0.8,0c0.3,0,0.6,0,0.8,0c0.2,0,0.4,0.1,0.5,0.1
			c0.1,0.1,0.2,0.1,0.2,0.2c0,0.1,0.1,0.2,0.1,0.3V42c0.5-0.7,1-1.4,1.4-1.8c0.4-0.5,0.9-0.8,1.3-1.1c0.4-0.3,0.8-0.5,1.2-0.6
			c0.4-0.1,0.8-0.2,1.2-0.2c0.2,0,0.4,0,0.6,0s0.5,0.1,0.7,0.1c0.2,0.1,0.5,0.1,0.7,0.2c0.2,0.1,0.3,0.1,0.4,0.2
			c0.1,0.1,0.1,0.1,0.2,0.2c0,0.1,0.1,0.1,0.1,0.2c0,0.1,0,0.2,0,0.4C162.7,39.9,162.7,40.2,162.7,40.5z"/>
		<path id="XMLID_38_" class="st4" d="M175.3,58.4l-2.5,6.9c-0.1,0.2-0.3,0.4-0.6,0.5c-0.3,0.1-0.9,0.2-1.5,0.2
			c-0.4,0-0.6,0-0.9-0.1c-0.2,0-0.4-0.1-0.5-0.2c-0.1-0.1-0.2-0.2-0.2-0.3c0-0.1,0-0.3,0.1-0.5l2.6-6.5c-0.1-0.1-0.2-0.1-0.4-0.3
			c-0.1-0.1-0.2-0.3-0.2-0.4l-6.6-17.8c-0.1-0.3-0.2-0.5-0.2-0.7s0.1-0.3,0.2-0.4c0.1-0.1,0.3-0.2,0.5-0.2c0.2,0,0.6-0.1,1-0.1
			s0.7,0,1,0s0.4,0.1,0.6,0.1c0.1,0.1,0.2,0.1,0.3,0.2c0.1,0.1,0.1,0.2,0.2,0.4l5.3,15h0.1l5.1-15c0.1-0.3,0.2-0.4,0.3-0.5
			c0.1-0.1,0.3-0.1,0.5-0.2c0.2,0,0.6-0.1,1-0.1c0.4,0,0.7,0,1,0.1c0.2,0,0.4,0.1,0.5,0.2c0.1,0.1,0.2,0.2,0.2,0.4s0,0.4-0.1,0.6
			L175.3,58.4z"/>
		<path id="XMLID_36_" class="st4" d="M212,57.6c-0.1,0.2-0.1,0.3-0.2,0.5c-0.1,0.1-0.3,0.2-0.5,0.3c-0.2,0.1-0.4,0.1-0.7,0.1
			c-0.3,0-0.6,0-1,0c-0.4,0-0.8,0-1.1,0c-0.3,0-0.5-0.1-0.7-0.1c-0.2-0.1-0.3-0.2-0.4-0.3c-0.1-0.1-0.2-0.3-0.2-0.5l-5.6-20.2h0
			l-5.2,20.2c0,0.2-0.1,0.3-0.2,0.5c-0.1,0.1-0.2,0.2-0.4,0.3c-0.2,0.1-0.4,0.1-0.7,0.1c-0.3,0-0.6,0-1.1,0c-0.5,0-0.8,0-1.1,0
			c-0.3,0-0.6-0.1-0.7-0.1c-0.2-0.1-0.3-0.2-0.4-0.3c-0.1-0.1-0.2-0.3-0.2-0.5l-7.1-24.8c-0.1-0.3-0.1-0.6-0.1-0.7
			c0-0.2,0-0.3,0.2-0.4c0.1-0.1,0.3-0.2,0.6-0.2c0.3,0,0.6,0,1.1,0c0.4,0,0.8,0,1,0c0.2,0,0.4,0.1,0.6,0.1c0.1,0.1,0.2,0.1,0.3,0.2
			c0,0.1,0.1,0.2,0.1,0.4l6,22.5h0l5.7-22.4c0-0.2,0.1-0.3,0.2-0.4c0.1-0.1,0.2-0.2,0.3-0.2c0.1-0.1,0.3-0.1,0.6-0.1
			c0.3,0,0.6,0,1,0c0.4,0,0.7,0,0.9,0c0.2,0,0.4,0.1,0.5,0.1c0.1,0.1,0.2,0.1,0.3,0.2c0.1,0.1,0.1,0.2,0.2,0.4l6.2,22.4h0l5.9-22.4
			c0-0.1,0.1-0.3,0.1-0.4c0-0.1,0.1-0.2,0.3-0.2c0.1-0.1,0.3-0.1,0.6-0.1c0.2,0,0.6,0,1,0c0.4,0,0.7,0,1,0.1c0.2,0,0.4,0.1,0.5,0.2
			c0.1,0.1,0.2,0.2,0.2,0.4c0,0.2,0,0.4-0.1,0.7L212,57.6z"/>
		<path id="XMLID_33_" class="st4" d="M239.3,48.4c0,1.5-0.2,2.9-0.6,4.2c-0.4,1.3-1,2.4-1.8,3.3c-0.8,0.9-1.8,1.6-3,2.2
			c-1.2,0.5-2.6,0.8-4.2,0.8c-1.5,0-2.9-0.2-4-0.7s-2.1-1.1-2.8-2c-0.8-0.9-1.3-1.9-1.7-3.2c-0.4-1.2-0.6-2.7-0.6-4.2
			c0-1.5,0.2-2.9,0.6-4.2c0.4-1.3,1-2.4,1.8-3.3c0.8-0.9,1.8-1.6,3-2.2c1.2-0.5,2.6-0.8,4.2-0.8c1.5,0,2.9,0.2,4,0.7s2.1,1.1,2.8,2
			s1.3,1.9,1.7,3.2C239.1,45.4,239.3,46.8,239.3,48.4z M235.7,48.6c0-1-0.1-2-0.3-2.9c-0.2-0.9-0.5-1.7-0.9-2.4
			c-0.4-0.7-1-1.2-1.8-1.6c-0.7-0.4-1.7-0.6-2.8-0.6c-1,0-1.9,0.2-2.6,0.5c-0.7,0.4-1.3,0.9-1.8,1.5c-0.5,0.7-0.8,1.4-1.1,2.3
			c-0.2,0.9-0.3,1.9-0.3,2.9c0,1,0.1,2,0.3,2.9c0.2,0.9,0.5,1.7,0.9,2.4c0.4,0.7,1,1.2,1.8,1.6c0.7,0.4,1.7,0.6,2.8,0.6
			c1,0,1.9-0.2,2.6-0.5c0.7-0.4,1.3-0.9,1.8-1.5c0.5-0.6,0.8-1.4,1-2.3C235.6,50.7,235.7,49.7,235.7,48.6z"/>
		<path id="XMLID_31_" class="st4" d="M255.2,40.5c0,0.3,0,0.6,0,0.8c0,0.2,0,0.4-0.1,0.5c0,0.1-0.1,0.2-0.2,0.3
			c-0.1,0.1-0.1,0.1-0.3,0.1s-0.2,0-0.4-0.1c-0.2-0.1-0.3-0.1-0.5-0.2s-0.4-0.1-0.7-0.2c-0.2-0.1-0.5-0.1-0.8-0.1
			c-0.3,0-0.7,0.1-1,0.2c-0.3,0.1-0.7,0.4-1,0.7c-0.4,0.3-0.7,0.7-1.2,1.3c-0.4,0.5-0.8,1.2-1.3,1.9v12.3c0,0.1,0,0.2-0.1,0.3
			c-0.1,0.1-0.1,0.1-0.3,0.2s-0.3,0.1-0.5,0.1c-0.2,0-0.5,0-0.8,0c-0.3,0-0.6,0-0.8,0c-0.2,0-0.4-0.1-0.5-0.1s-0.2-0.1-0.3-0.2
			c0-0.1-0.1-0.2-0.1-0.3V39.3c0-0.1,0-0.2,0.1-0.3c0-0.1,0.1-0.1,0.2-0.2c0.1-0.1,0.3-0.1,0.5-0.1c0.2,0,0.4,0,0.8,0
			c0.3,0,0.6,0,0.8,0s0.4,0.1,0.5,0.1c0.1,0.1,0.2,0.1,0.2,0.2c0,0.1,0.1,0.2,0.1,0.3V42c0.5-0.7,1-1.4,1.4-1.8
			c0.4-0.5,0.9-0.8,1.3-1.1c0.4-0.3,0.8-0.5,1.2-0.6s0.8-0.2,1.2-0.2c0.2,0,0.4,0,0.6,0c0.2,0,0.5,0.1,0.7,0.1
			c0.2,0.1,0.5,0.1,0.7,0.2c0.2,0.1,0.3,0.1,0.4,0.2c0.1,0.1,0.1,0.1,0.2,0.2c0,0.1,0.1,0.1,0.1,0.2c0,0.1,0,0.2,0,0.4
			C255.2,39.9,255.2,40.2,255.2,40.5z"/>
		<path id="XMLID_29_" class="st4" d="M274.4,57.9c0,0.1,0,0.2-0.1,0.3c-0.1,0.1-0.1,0.2-0.3,0.2s-0.3,0.1-0.5,0.1
			c-0.2,0-0.5,0-0.9,0c-0.4,0-0.7,0-0.9,0c-0.2,0-0.4-0.1-0.6-0.1s-0.3-0.1-0.4-0.2c-0.1-0.1-0.2-0.2-0.3-0.3l-7.9-10.3v10.3
			c0,0.1,0,0.2-0.1,0.3c-0.1,0.1-0.1,0.1-0.3,0.2s-0.3,0.1-0.5,0.1c-0.2,0-0.5,0-0.8,0c-0.3,0-0.6,0-0.8,0c-0.2,0-0.4-0.1-0.5-0.1
			s-0.2-0.1-0.3-0.2c0-0.1-0.1-0.2-0.1-0.3V30.2c0-0.1,0-0.2,0.1-0.3c0-0.1,0.1-0.2,0.3-0.2c0.1-0.1,0.3-0.1,0.5-0.1
			c0.2,0,0.5,0,0.8,0c0.3,0,0.6,0,0.8,0c0.2,0,0.4,0.1,0.5,0.1c0.1,0.1,0.2,0.1,0.3,0.2s0.1,0.2,0.1,0.3v16.9l7-7.7
			c0.1-0.1,0.2-0.3,0.4-0.3c0.1-0.1,0.3-0.2,0.4-0.2c0.2-0.1,0.4-0.1,0.6-0.1c0.2,0,0.5,0,0.8,0c0.3,0,0.6,0,0.9,0
			c0.2,0,0.4,0.1,0.6,0.1c0.1,0,0.2,0.1,0.3,0.2c0.1,0.1,0.1,0.2,0.1,0.3c0,0.2,0,0.3-0.1,0.5c-0.1,0.2-0.2,0.4-0.4,0.6l-6.8,6.8
			l7.6,9.8c0.2,0.2,0.3,0.4,0.4,0.6C274.4,57.6,274.4,57.7,274.4,57.9z"/>
		<path id="XMLID_27_" class="st4" d="M294.5,57.9c0,0.1,0,0.2-0.1,0.3c-0.1,0.1-0.1,0.1-0.3,0.2c-0.1,0.1-0.3,0.1-0.5,0.1
			c-0.2,0-0.5,0-0.8,0c-0.3,0-0.6,0-0.8,0c-0.2,0-0.4-0.1-0.5-0.1s-0.2-0.1-0.3-0.2c-0.1-0.1-0.1-0.2-0.1-0.3V32.6
			c0,0-0.1,0.1-0.1,0.1c-0.1,0-0.1,0-0.2,0c-0.2,0-0.4,0-0.7-0.1c-0.3-0.1-0.7-0.1-1-0.2c-0.4-0.1-0.7-0.1-1-0.1c-0.3,0-0.6,0-1,0
			c-0.9,0-1.6,0.1-2.1,0.3c-0.6,0.2-1,0.4-1.3,0.8c-0.3,0.4-0.5,0.8-0.7,1.4c-0.1,0.6-0.2,1.2-0.2,2v2h3.8c0.1,0,0.2,0,0.3,0.1
			c0.1,0,0.2,0.1,0.2,0.2c0.1,0.1,0.1,0.3,0.1,0.4c0,0.2,0,0.4,0,0.7c0,0.5-0.1,0.9-0.2,1.1c-0.1,0.2-0.3,0.3-0.5,0.3h-3.8v16.3
			c0,0.1,0,0.2-0.1,0.3c-0.1,0.1-0.1,0.1-0.3,0.2c-0.1,0.1-0.3,0.1-0.5,0.1c-0.2,0-0.5,0-0.8,0c-0.3,0-0.6,0-0.8,0
			c-0.2,0-0.4-0.1-0.5-0.1c-0.1-0.1-0.2-0.1-0.3-0.2c-0.1-0.1-0.1-0.2-0.1-0.3V41.5h-2.6c-0.2,0-0.4-0.1-0.5-0.3
			c-0.1-0.2-0.2-0.6-0.2-1.1c0-0.3,0-0.5,0-0.7c0-0.2,0.1-0.3,0.1-0.4c0.1-0.1,0.1-0.2,0.2-0.2c0.1,0,0.2-0.1,0.3-0.1h2.6v-2
			c0-1.3,0.1-2.4,0.4-3.3c0.3-0.9,0.7-1.7,1.3-2.3c0.6-0.6,1.4-1,2.3-1.3c0.9-0.3,2-0.4,3.3-0.4c0.4,0,0.7,0,1.1,0
			c0.4,0,0.8,0.1,1.1,0.1c0.4,0,0.7,0.1,1,0.1c0.3,0,0.5,0.1,0.6,0.1c0.2,0,0.3,0.1,0.4,0.2c0.1,0.1,0.2,0.2,0.2,0.3
			c0-0.1,0-0.2,0.1-0.3c0-0.1,0.1-0.2,0.2-0.2c0.1-0.1,0.3-0.1,0.5-0.1c0.2,0,0.5,0,0.9,0c0.3,0,0.6,0,0.8,0c0.2,0,0.4,0.1,0.5,0.1
			c0.1,0.1,0.2,0.1,0.3,0.2c0.1,0.1,0.1,0.2,0.1,0.3V57.9z"/>
		<path id="XMLID_24_" class="st4" d="M318.2,48.4c0,1.5-0.2,2.9-0.6,4.2c-0.4,1.3-1,2.4-1.8,3.3c-0.8,0.9-1.8,1.6-3,2.2
			c-1.2,0.5-2.6,0.8-4.2,0.8c-1.5,0-2.9-0.2-4-0.7c-1.1-0.5-2.1-1.1-2.8-2c-0.8-0.9-1.3-1.9-1.7-3.2c-0.4-1.2-0.6-2.7-0.6-4.2
			c0-1.5,0.2-2.9,0.6-4.2c0.4-1.3,1-2.4,1.8-3.3c0.8-0.9,1.8-1.6,3-2.2c1.2-0.5,2.6-0.8,4.2-0.8c1.5,0,2.9,0.2,4,0.7
			c1.1,0.5,2.1,1.1,2.8,2c0.8,0.9,1.3,1.9,1.7,3.2C318,45.4,318.2,46.8,318.2,48.4z M314.6,48.6c0-1-0.1-2-0.3-2.9
			c-0.2-0.9-0.5-1.7-0.9-2.4c-0.4-0.7-1-1.2-1.8-1.6c-0.7-0.4-1.7-0.6-2.8-0.6c-1,0-1.9,0.2-2.6,0.5c-0.7,0.4-1.3,0.9-1.8,1.5
			c-0.5,0.7-0.8,1.4-1.1,2.3c-0.2,0.9-0.3,1.9-0.3,2.9c0,1,0.1,2,0.3,2.9c0.2,0.9,0.5,1.7,0.9,2.4c0.4,0.7,1,1.2,1.8,1.6
			c0.7,0.4,1.7,0.6,2.8,0.6c1,0,1.9-0.2,2.6-0.5c0.7-0.4,1.3-0.9,1.8-1.5c0.5-0.6,0.8-1.4,1-2.3C314.5,50.7,314.6,49.7,314.6,48.6z"
			/>
		<path id="XMLID_22_" class="st4" d="M349.1,39.2c0,0.1,0,0.2,0,0.4c0,0.1-0.1,0.3-0.1,0.5l-5.5,17.7c0,0.2-0.1,0.3-0.2,0.4
			c-0.1,0.1-0.2,0.2-0.4,0.2s-0.4,0.1-0.7,0.1c-0.3,0-0.6,0-1,0c-0.4,0-0.8,0-1.1,0c-0.3,0-0.5-0.1-0.7-0.1s-0.3-0.1-0.4-0.2
			c-0.1-0.1-0.1-0.2-0.2-0.4l-3.9-13.5l0-0.2l0,0.2l-3.6,13.5c0,0.2-0.1,0.3-0.2,0.4c-0.1,0.1-0.2,0.2-0.4,0.2
			c-0.2,0.1-0.4,0.1-0.7,0.1c-0.3,0-0.6,0-1,0c-0.4,0-0.8,0-1,0c-0.3,0-0.5-0.1-0.7-0.1s-0.3-0.1-0.4-0.2c-0.1-0.1-0.1-0.2-0.2-0.4
			l-5.4-17.7c-0.1-0.2-0.1-0.4-0.1-0.5c0-0.1,0-0.3,0-0.4c0-0.1,0-0.2,0.1-0.3c0.1-0.1,0.1-0.1,0.3-0.2c0.1,0,0.3-0.1,0.5-0.1
			c0.2,0,0.5,0,0.8,0c0.4,0,0.7,0,0.9,0c0.2,0,0.4,0.1,0.5,0.1c0.1,0,0.2,0.1,0.3,0.2c0.1,0.1,0.1,0.2,0.1,0.3l4.5,15.4l0,0.2l0-0.2
			l4.1-15.4c0-0.1,0.1-0.2,0.1-0.3c0.1-0.1,0.2-0.2,0.3-0.2c0.1,0,0.3-0.1,0.5-0.1c0.2,0,0.5,0,0.8,0c0.3,0,0.6,0,0.8,0
			c0.2,0,0.4,0.1,0.5,0.1c0.1,0,0.2,0.1,0.3,0.2c0.1,0.1,0.1,0.2,0.1,0.3l4.5,15.4l0,0.2l0-0.2l4.4-15.4c0-0.1,0.1-0.2,0.1-0.3
			c0.1-0.1,0.2-0.2,0.3-0.2c0.1,0,0.3-0.1,0.5-0.1c0.2,0,0.5,0,0.9,0c0.3,0,0.6,0,0.8,0c0.2,0,0.4,0,0.5,0.1
			c0.1,0.1,0.2,0.1,0.2,0.2C349.1,39,349.1,39.1,349.1,39.2z"/>
	</g>
</g>
</svg>
